<?xml version="1.0" standalone="no"?>
<!DOCTYPE svg PUBLIC "-//W3C//DTD SVG 20010904//EN"
 "http://www.w3.org/TR/2001/REC-SVG-20010904/DTD/svg10.dtd">
<svg version="1.0" xmlns="http://www.w3.org/2000/svg"
 width="1200.000000pt" height="94.000000pt" viewBox="0 0 1200.000000 94.000000"
 preserveAspectRatio="xMidYMid meet">

<g transform="translate(0.000000,94.000000) scale(0.100000,-0.100000)"
fill="#000000" stroke="none">
<path d="M3095 927 c-167 -43 -290 -174 -326 -346 -6 -31 -9 -96 -7 -147 4
-76 11 -104 36 -158 87 -185 283 -290 481 -256 83 14 193 65 236 110 l29 30
-59 60 c-33 33 -65 60 -72 60 -6 0 -35 -15 -64 -32 -42 -26 -64 -33 -119 -36
-84 -5 -131 9 -182 56 -65 59 -82 102 -82 207 0 78 3 97 27 141 47 92 118 134
222 134 53 0 139 -33 164 -63 7 -10 21 -17 31 -17 24 0 131 115 124 134 -8 22
-102 83 -164 107 -68 26 -204 34 -275 16z"/>
<path d="M3910 931 c-85 -28 -169 -99 -209 -177 -12 -22 -27 -67 -33 -98 -24
-113 39 -258 145 -330 138 -94 320 -80 438 35 73 71 104 143 104 244 0 67 -4
89 -28 137 -34 69 -94 131 -162 166 -41 21 -66 26 -140 29 -49 1 -101 -1 -115
-6z m166 -197 c69 -33 104 -127 70 -191 -28 -55 -71 -83 -127 -83 -95 0 -149
53 -149 146 0 108 108 175 206 128z"/>
<path d="M9160 931 c-59 -19 -110 -54 -158 -106 -189 -206 -61 -523 225 -561
101 -13 238 44 303 126 107 135 102 310 -12 435 -75 82 -131 108 -243 112 -49
1 -101 -1 -115 -6z m169 -201 c51 -26 86 -94 76 -147 -14 -76 -70 -123 -145
-123 -111 0 -177 102 -132 204 35 77 123 107 201 66z"/>
<path d="M10861 930 c-133 -28 -221 -140 -221 -285 0 -73 33 -148 85 -194 40
-35 132 -71 181 -71 110 0 158 -120 67 -168 -54 -29 -133 5 -133 57 0 30 -30
41 -107 41 -91 0 -97 -6 -90 -70 13 -107 85 -184 202 -215 201 -55 375 65 375
260 0 157 -95 254 -269 275 -53 7 -70 14 -88 35 -33 38 -31 89 6 126 50 50
123 34 148 -31 l16 -41 91 3 91 3 -1 46 c-5 148 -183 263 -353 229z"/>
<path d="M682 922 c-10 -7 -12 -103 -10 -448 l3 -439 89 -3 c65 -2 92 1 98 10
4 7 8 88 8 181 l0 167 145 0 145 0 0 -180 0 -181 98 3 97 3 3 435 c2 400 1
436 -15 448 -22 16 -155 16 -171 0 -8 -8 -12 -62 -12 -175 l0 -163 -145 0
-145 0 0 165 c0 152 -1 165 -19 175 -23 12 -150 13 -169 2z"/>
<path d="M1577 918 c-16 -12 -17 -48 -15 -448 l3 -435 305 0 305 0 0 85 0 85
-207 3 -208 2 0 85 0 85 159 0 c88 0 166 3 175 6 23 9 23 169 0 178 -9 3 -87
6 -175 6 l-159 0 0 85 0 85 208 2 207 3 3 86 c3 83 2 87 -20 93 -13 3 -145 6
-294 6 -200 0 -275 -3 -287 -12z"/>
<path d="M6062 922 c-10 -7 -12 -103 -10 -448 l3 -439 305 0 305 0 0 85 0 85
-207 3 -208 2 0 85 0 85 163 0 c113 0 167 4 175 12 16 16 16 150 0 166 -8 8
-62 12 -175 12 l-163 0 0 85 0 85 208 2 207 3 3 80 c2 66 0 82 -14 92 -14 10
-87 13 -298 13 -155 0 -287 -4 -294 -8z"/>
<path d="M6832 922 c-10 -7 -12 -103 -10 -448 l3 -439 305 0 305 0 0 85 0 85
-207 3 -208 2 0 85 0 85 163 0 c113 0 167 4 175 12 16 16 16 150 0 166 -8 8
-62 12 -175 12 l-163 0 0 85 0 85 208 2 207 3 3 80 c2 66 0 82 -14 92 -14 10
-87 13 -298 13 -155 0 -287 -4 -294 -8z"/>
<path d="M8063 923 c-10 -4 -13 -103 -13 -449 l0 -444 94 0 c76 0 95 3 100 16
3 9 6 90 6 180 l0 164 145 0 145 0 2 -178 3 -177 95 0 95 0 3 435 c3 500 11
460 -99 460 -106 0 -99 13 -99 -181 l0 -169 -145 0 -145 0 0 159 c0 193 1 191
-103 190 -40 0 -78 -3 -84 -6z"/>
<path d="M11397 923 c-16 -4 -17 -32 -15 -446 l3 -442 305 0 305 0 0 85 0 85
-207 3 -208 2 0 85 0 85 159 0 c88 0 166 3 175 6 13 5 16 23 16 89 0 66 -3 84
-16 89 -9 3 -87 6 -175 6 l-159 0 0 85 0 85 208 2 207 3 3 86 c3 83 2 87 -20
93 -26 7 -554 6 -581 -1z"/>
<path d="M4 907 c-3 -8 -4 -47 -2 -88 l3 -74 83 -3 82 -3 0 -344 c0 -299 2
-346 16 -359 11 -12 35 -16 84 -16 110 0 100 -37 100 366 l0 353 88 3 87 3 3
79 c2 57 -1 82 -10 87 -7 5 -129 9 -271 9 -207 0 -259 -3 -263 -13z"/>
<path d="M4535 908 c-3 -7 -4 -206 -3 -443 l3 -430 89 -3 c65 -2 92 1 98 10 4
7 8 86 8 175 l0 163 173 2 172 3 3 78 c2 50 -1 84 -9 93 -9 11 -47 14 -175 14
l-164 0 0 80 0 80 208 2 207 3 3 84 c2 61 -1 87 -10 92 -7 5 -145 9 -306 9
-225 0 -294 -3 -297 -12z"/>
<path d="M5295 908 c-3 -7 -4 -206 -3 -443 l3 -430 89 -3 c65 -2 92 1 98 10 4
7 8 86 8 175 l0 163 173 2 172 3 3 78 c2 50 -1 84 -9 93 -9 11 -47 14 -175 14
l-164 0 0 80 0 80 208 2 207 3 3 84 c2 61 -1 87 -10 92 -7 5 -145 9 -306 9
-225 0 -294 -3 -297 -12z"/>
<path d="M9784 906 c-3 -7 -4 -163 -2 -347 3 -321 4 -336 25 -374 81 -150 284
-213 465 -145 74 27 131 79 165 148 l28 57 3 326 c3 277 1 327 -11 338 -10 8
-43 11 -99 9 l-83 -3 -5 -315 c-4 -236 -8 -321 -18 -338 -16 -28 -85 -62 -127
-62 -16 0 -49 9 -72 19 -72 33 -73 40 -73 371 0 182 -4 299 -10 311 -9 16 -22
19 -96 19 -62 0 -86 -4 -90 -14z"/>
<path d="M3707 213 c-4 -3 -7 -46 -7 -95 l0 -88 310 0 311 0 -3 93 -3 92 -301
3 c-165 1 -303 -1 -307 -5z"/>
<path d="M8952 208 c-14 -14 -16 -146 -4 -166 7 -9 76 -12 313 -10 l304 3 3
84 c2 61 -1 87 -10 92 -22 14 -592 11 -606 -3z"/>
</g>
</svg>
